<svg width="20" height="14" viewBox="0 0 20 14" fill="none" xmlns="http://www.w3.org/2000/svg">
<path d="M18.2422 0.148773H1.75781C0.788555 0.148773 0 0.937328 0 1.90659V12.0934C0 13.0626 0.788555 13.8512 1.75781 13.8512H18.2422C19.2114 13.8512 20 13.0626 20 12.0934V1.90659C20 0.937328 19.2114 0.148773 18.2422 0.148773ZM18.0128 1.32065L17.7782 1.516L10.6974 7.41213C10.2933 7.74862 9.70664 7.74862 9.30258 7.41213L2.22184 1.516L1.98723 1.32065H18.0128ZM1.17188 2.16666L6.94109 6.97069L1.17188 10.8103V2.16666ZM18.2422 12.6793H1.75781C1.47469 12.6793 1.23789 12.4774 1.18363 12.2101L7.8807 7.75307L8.55273 8.31268C8.97203 8.66182 9.48606 8.83639 10 8.83639C10.514 8.83639 11.028 8.66182 11.4473 8.31268L12.1194 7.75307L18.8164 12.2101C18.7621 12.4775 18.5253 12.6793 18.2422 12.6793ZM18.8281 10.8103L13.0589 6.97073L18.8281 2.16666V10.8103Z" fill="#8B5D9A"/>
</svg>
